STARTFONT 2.1
FONT -font_tiny5-Regular-R-Regular--7-7-75-75-c-80-iso10646-1
SIZE 7 75 75
FONTBOUNDINGBOX 7 7 -1 -1
STARTPROPERTIES 9
FAMILY_NAME "font_tiny5"
WEIGHT_NAME "Regular"
FONT_VERSION "1.0.1"
COPYRIGHT "(CC) Gissio 2022-2024 Creative Commons Zero v1.0.1 Universal"
FONT_ASCENT 6
FONT_DESCENT 1
POINT_SIZE 8
X_HEIGHT 4
CAP_HEIGHT 5
ENDPROPERTIES
CHARS 192
STARTCHAR U+0020
ENCODING 32
SWIDTH 285 0
DWIDTH 2 0
BBX 0 0 0 0
BITMAP
ENDCHAR
STARTCHAR U+0021
ENCODING 33
SWIDTH 285 0
DWIDTH 2 0
BBX 1 5 0 0
BITMAP
80
80
80
00
80
ENDCHAR
STARTCHAR U+0022
ENCODING 34
SWIDTH 571 0
DWIDTH 4 0
BBX 3 2 0 3
BITMAP
A0
A0
ENDCHAR
STARTCHAR U+0023
ENCODING 35
SWIDTH 857 0
DWIDTH 6 0
BBX 5 5 0 0
BITMAP
50
F8
50
F8
50
ENDCHAR
STARTCHAR U+0024
ENCODING 36
SWIDTH 571 0
DWIDTH 4 0
BBX 3 6 0 -1
BITMAP
40
60
C0
20
C0
40
ENDCHAR
STARTCHAR U+0025
ENCODING 37
SWIDTH 714 0
DWIDTH 5 0
BBX 4 4 0 1
BITMAP
90
20
40
90
ENDCHAR
STARTCHAR U+0026
ENCODING 38
SWIDTH 714 0
DWIDTH 5 0
BBX 4 5 0 0
BITMAP
40
A0
40
A0
50
ENDCHAR
STARTCHAR U+0027
ENCODING 39
SWIDTH 285 0
DWIDTH 2 0
BBX 1 2 0 3
BITMAP
80
80
ENDCHAR
STARTCHAR U+0028
ENCODING 40
SWIDTH 428 0
DWIDTH 3 0
BBX 2 5 0 0
BITMAP
40
80
80
80
40
ENDCHAR
STARTCHAR U+0029
ENCODING 41
SWIDTH 428 0
DWIDTH 3 0
BBX 2 5 0 0
BITMAP
80
40
40
40
80
ENDCHAR
STARTCHAR U+002A
ENCODING 42
SWIDTH 571 0
DWIDTH 4 0
BBX 3 4 0 1
BITMAP
40
E0
40
A0
ENDCHAR
STARTCHAR U+002B
ENCODING 43
SWIDTH 571 0
DWIDTH 4 0
BBX 3 3 0 1
BITMAP
40
E0
40
ENDCHAR
STARTCHAR U+002C
ENCODING 44
SWIDTH 428 0
DWIDTH 3 0
BBX 2 2 0 -1
BITMAP
40
80
ENDCHAR
STARTCHAR U+002D
ENCODING 45
SWIDTH 571 0
DWIDTH 4 0
BBX 3 1 0 2
BITMAP
E0
ENDCHAR
STARTCHAR U+002E
ENCODING 46
SWIDTH 285 0
DWIDTH 2 0
BBX 1 1 0 0
BITMAP
80
ENDCHAR
STARTCHAR U+002F
ENCODING 47
SWIDTH 428 0
DWIDTH 3 0
BBX 2 5 0 0
BITMAP
40
40
80
80
80
ENDCHAR
STARTCHAR U+0030
ENCODING 48
SWIDTH 571 0
DWIDTH 4 0
BBX 3 5 0 0
BITMAP
40
A0
A0
A0
40
ENDCHAR
STARTCHAR U+0031
ENCODING 49
SWIDTH 571 0
DWIDTH 4 0
BBX 2 5 0 0
BITMAP
40
C0
40
40
40
ENDCHAR
STARTCHAR U+0032
ENCODING 50
SWIDTH 571 0
DWIDTH 4 0
BBX 3 5 0 0
BITMAP
C0
20
40
80
E0
ENDCHAR
STARTCHAR U+0033
ENCODING 51
SWIDTH 571 0
DWIDTH 4 0
BBX 3 5 0 0
BITMAP
C0
20
40
20
C0
ENDCHAR
STARTCHAR U+0034
ENCODING 52
SWIDTH 571 0
DWIDTH 4 0
BBX 3 5 0 0
BITMAP
20
60
A0
E0
20
ENDCHAR
STARTCHAR U+0035
ENCODING 53
SWIDTH 571 0
DWIDTH 4 0
BBX 3 5 0 0
BITMAP
E0
80
C0
20
C0
ENDCHAR
STARTCHAR U+0036
ENCODING 54
SWIDTH 571 0
DWIDTH 4 0
BBX 3 5 0 0
BITMAP
60
80
C0
A0
40
ENDCHAR
STARTCHAR U+0037
ENCODING 55
SWIDTH 571 0
DWIDTH 4 0
BBX 3 5 0 0
BITMAP
E0
20
40
40
40
ENDCHAR
STARTCHAR U+0038
ENCODING 56
SWIDTH 571 0
DWIDTH 4 0
BBX 3 5 0 0
BITMAP
40
A0
40
A0
40
ENDCHAR
STARTCHAR U+0039
ENCODING 57
SWIDTH 571 0
DWIDTH 4 0
BBX 3 5 0 0
BITMAP
40
A0
60
20
C0
ENDCHAR
STARTCHAR U+003A
ENCODING 58
SWIDTH 285 0
DWIDTH 2 0
BBX 1 4 0 0
BITMAP
80
00
00
80
ENDCHAR
STARTCHAR U+003B
ENCODING 59
SWIDTH 428 0
DWIDTH 3 0
BBX 2 5 0 -1
BITMAP
40
00
00
40
80
ENDCHAR
STARTCHAR U+003C
ENCODING 60
SWIDTH 571 0
DWIDTH 4 0
BBX 3 5 0 0
BITMAP
20
40
80
40
20
ENDCHAR
STARTCHAR U+003D
ENCODING 61
SWIDTH 571 0
DWIDTH 4 0
BBX 3 3 0 1
BITMAP
E0
00
E0
ENDCHAR
STARTCHAR U+003E
ENCODING 62
SWIDTH 571 0
DWIDTH 4 0
BBX 3 5 0 0
BITMAP
80
40
20
40
80
ENDCHAR
STARTCHAR U+003F
ENCODING 63
SWIDTH 571 0
DWIDTH 4 0
BBX 3 5 0 0
BITMAP
C0
20
40
00
40
ENDCHAR
STARTCHAR U+0040
ENCODING 64
SWIDTH 714 0
DWIDTH 5 0
BBX 4 5 0 0
BITMAP
60
90
B0
80
60
ENDCHAR
STARTCHAR U+0041
ENCODING 65
SWIDTH 714 0
DWIDTH 5 0
BBX 4 5 0 0
BITMAP
60
90
F0
90
90
ENDCHAR
STARTCHAR U+0042
ENCODING 66
SWIDTH 714 0
DWIDTH 5 0
BBX 4 5 0 0
BITMAP
E0
90
E0
90
E0
ENDCHAR
STARTCHAR U+0043
ENCODING 67
SWIDTH 714 0
DWIDTH 5 0
BBX 4 5 0 0
BITMAP
60
90
80
90
60
ENDCHAR
STARTCHAR U+0044
ENCODING 68
SWIDTH 714 0
DWIDTH 5 0
BBX 4 5 0 0
BITMAP
E0
90
90
90
E0
ENDCHAR
STARTCHAR U+0045
ENCODING 69
SWIDTH 714 0
DWIDTH 5 0
BBX 4 5 0 0
BITMAP
F0
80
E0
80
F0
ENDCHAR
STARTCHAR U+0046
ENCODING 70
SWIDTH 714 0
DWIDTH 5 0
BBX 4 5 0 0
BITMAP
F0
80
E0
80
80
ENDCHAR
STARTCHAR U+0047
ENCODING 71
SWIDTH 714 0
DWIDTH 5 0
BBX 4 5 0 0
BITMAP
70
80
B0
90
70
ENDCHAR
STARTCHAR U+0048
ENCODING 72
SWIDTH 714 0
DWIDTH 5 0
BBX 4 5 0 0
BITMAP
90
90
F0
90
90
ENDCHAR
STARTCHAR U+0049
ENCODING 73
SWIDTH 285 0
DWIDTH 2 0
BBX 1 5 0 0
BITMAP
80
80
80
80
80
ENDCHAR
STARTCHAR U+004A
ENCODING 74
SWIDTH 571 0
DWIDTH 4 0
BBX 3 5 0 0
BITMAP
20
20
20
A0
40
ENDCHAR
STARTCHAR U+004B
ENCODING 75
SWIDTH 714 0
DWIDTH 5 0
BBX 4 5 0 0
BITMAP
90
A0
C0
A0
90
ENDCHAR
STARTCHAR U+004C
ENCODING 76
SWIDTH 571 0
DWIDTH 4 0
BBX 3 5 0 0
BITMAP
80
80
80
80
E0
ENDCHAR
STARTCHAR U+004D
ENCODING 77
SWIDTH 857 0
DWIDTH 6 0
BBX 5 5 0 0
BITMAP
88
D8
A8
88
88
ENDCHAR
STARTCHAR U+004E
ENCODING 78
SWIDTH 714 0
DWIDTH 5 0
BBX 4 5 0 0
BITMAP
90
D0
B0
90
90
ENDCHAR
STARTCHAR U+004F
ENCODING 79
SWIDTH 714 0
DWIDTH 5 0
BBX 4 5 0 0
BITMAP
60
90
90
90
60
ENDCHAR
STARTCHAR U+0050
ENCODING 80
SWIDTH 714 0
DWIDTH 5 0
BBX 4 5 0 0
BITMAP
E0
90
E0
80
80
ENDCHAR
STARTCHAR U+0051
ENCODING 81
SWIDTH 714 0
DWIDTH 5 0
BBX 4 5 0 0
BITMAP
60
90
90
A0
50
ENDCHAR
STARTCHAR U+0052
ENCODING 82
SWIDTH 714 0
DWIDTH 5 0
BBX 4 5 0 0
BITMAP
E0
90
E0
90
90
ENDCHAR
STARTCHAR U+0053
ENCODING 83
SWIDTH 714 0
DWIDTH 5 0
BBX 4 5 0 0
BITMAP
70
80
60
10
E0
ENDCHAR
STARTCHAR U+0054
ENCODING 84
SWIDTH 571 0
DWIDTH 4 0
BBX 3 5 0 0
BITMAP
E0
40
40
40
40
ENDCHAR
STARTCHAR U+0055
ENCODING 85
SWIDTH 714 0
DWIDTH 5 0
BBX 4 5 0 0
BITMAP
90
90
90
90
60
ENDCHAR
STARTCHAR U+0056
ENCODING 86
SWIDTH 571 0
DWIDTH 4 0
BBX 3 5 0 0
BITMAP
A0
A0
A0
40
40
ENDCHAR
STARTCHAR U+0057
ENCODING 87
SWIDTH 857 0
DWIDTH 6 0
BBX 5 5 0 0
BITMAP
A8
A8
A8
50
50
ENDCHAR
STARTCHAR U+0058
ENCODING 88
SWIDTH 571 0
DWIDTH 4 0
BBX 3 5 0 0
BITMAP
A0
A0
40
A0
A0
ENDCHAR
STARTCHAR U+0059
ENCODING 89
SWIDTH 571 0
DWIDTH 4 0
BBX 3 5 0 0
BITMAP
A0
A0
40
40
40
ENDCHAR
STARTCHAR U+005A
ENCODING 90
SWIDTH 571 0
DWIDTH 4 0
BBX 3 5 0 0
BITMAP
E0
20
40
80
E0
ENDCHAR
STARTCHAR U+005B
ENCODING 91
SWIDTH 428 0
DWIDTH 3 0
BBX 2 5 0 0
BITMAP
C0
80
80
80
C0
ENDCHAR
STARTCHAR U+005C
ENCODING 92
SWIDTH 428 0
DWIDTH 3 0
BBX 2 5 0 0
BITMAP
80
80
40
40
40
ENDCHAR
STARTCHAR U+005D
ENCODING 93
SWIDTH 428 0
DWIDTH 3 0
BBX 2 5 0 0
BITMAP
C0
40
40
40
C0
ENDCHAR
STARTCHAR U+005E
ENCODING 94
SWIDTH 571 0
DWIDTH 4 0
BBX 3 2 0 3
BITMAP
40
A0
ENDCHAR
STARTCHAR U+005F
ENCODING 95
SWIDTH 571 0
DWIDTH 4 0
BBX 3 1 0 0
BITMAP
E0
ENDCHAR
STARTCHAR U+0060
ENCODING 96
SWIDTH 428 0
DWIDTH 3 0
BBX 2 2 0 3
BITMAP
80
40
ENDCHAR
STARTCHAR U+0061
ENCODING 97
SWIDTH 571 0
DWIDTH 4 0
BBX 3 4 0 0
BITMAP
60
A0
A0
60
ENDCHAR
STARTCHAR U+0062
ENCODING 98
SWIDTH 571 0
DWIDTH 4 0
BBX 3 5 0 0
BITMAP
80
C0
A0
A0
C0
ENDCHAR
STARTCHAR U+0063
ENCODING 99
SWIDTH 571 0
DWIDTH 4 0
BBX 3 4 0 0
BITMAP
60
80
80
60
ENDCHAR
STARTCHAR U+0064
ENCODING 100
SWIDTH 571 0
DWIDTH 4 0
BBX 3 5 0 0
BITMAP
20
60
A0
A0
60
ENDCHAR
STARTCHAR U+0065
ENCODING 101
SWIDTH 571 0
DWIDTH 4 0
BBX 3 4 0 0
BITMAP
40
E0
80
60
ENDCHAR
STARTCHAR U+0066
ENCODING 102
SWIDTH 428 0
DWIDTH 3 0
BBX 2 5 0 0
BITMAP
40
80
C0
80
80
ENDCHAR
STARTCHAR U+0067
ENCODING 103
SWIDTH 571 0
DWIDTH 4 0
BBX 3 5 0 -1
BITMAP
60
A0
A0
60
C0
ENDCHAR
STARTCHAR U+0068
ENCODING 104
SWIDTH 571 0
DWIDTH 4 0
BBX 3 5 0 0
BITMAP
80
C0
A0
A0
A0
ENDCHAR
STARTCHAR U+0069
ENCODING 105
SWIDTH 285 0
DWIDTH 2 0
BBX 1 6 0 0
BITMAP
80
00
80
80
80
80
ENDCHAR
STARTCHAR U+006A
ENCODING 106
SWIDTH 285 0
DWIDTH 2 0
BBX 1 7 0 -1
BITMAP
80
00
80
80
80
80
80
ENDCHAR
STARTCHAR U+006B
ENCODING 107
SWIDTH 571 0
DWIDTH 4 0
BBX 3 5 0 0
BITMAP
80
A0
C0
A0
A0
ENDCHAR
STARTCHAR U+006C
ENCODING 108
SWIDTH 285 0
DWIDTH 2 0
BBX 1 5 0 0
BITMAP
80
80
80
80
80
ENDCHAR
STARTCHAR U+006D
ENCODING 109
SWIDTH 857 0
DWIDTH 6 0
BBX 5 4 0 0
BITMAP
F0
A8
A8
A8
ENDCHAR
STARTCHAR U+006E
ENCODING 110
SWIDTH 571 0
DWIDTH 4 0
BBX 3 4 0 0
BITMAP
C0
A0
A0
A0
ENDCHAR
STARTCHAR U+006F
ENCODING 111
SWIDTH 571 0
DWIDTH 4 0
BBX 3 4 0 0
BITMAP
40
A0
A0
40
ENDCHAR
STARTCHAR U+0070
ENCODING 112
SWIDTH 571 0
DWIDTH 4 0
BBX 3 5 0 -1
BITMAP
C0
A0
A0
C0
80
ENDCHAR
STARTCHAR U+0071
ENCODING 113
SWIDTH 571 0
DWIDTH 4 0
BBX 3 5 0 -1
BITMAP
60
A0
A0
60
20
ENDCHAR
STARTCHAR U+0072
ENCODING 114
SWIDTH 428 0
DWIDTH 3 0
BBX 2 4 0 0
BITMAP
C0
80
80
80
ENDCHAR
STARTCHAR U+0073
ENCODING 115
SWIDTH 571 0
DWIDTH 4 0
BBX 3 4 0 0
BITMAP
60
C0
20
C0
ENDCHAR
STARTCHAR U+0074
ENCODING 116
SWIDTH 428 0
DWIDTH 3 0
BBX 2 5 0 0
BITMAP
80
C0
80
80
40
ENDCHAR
STARTCHAR U+0075
ENCODING 117
SWIDTH 571 0
DWIDTH 4 0
BBX 3 4 0 0
BITMAP
A0
A0
A0
60
ENDCHAR
STARTCHAR U+0076
ENCODING 118
SWIDTH 571 0
DWIDTH 4 0
BBX 3 4 0 0
BITMAP
A0
A0
A0
40
ENDCHAR
STARTCHAR U+0077
ENCODING 119
SWIDTH 857 0
DWIDTH 6 0
BBX 5 4 0 0
BITMAP
A8
A8
A8
50
ENDCHAR
STARTCHAR U+0078
ENCODING 120
SWIDTH 571 0
DWIDTH 4 0
BBX 3 4 0 0
BITMAP
A0
40
40
A0
ENDCHAR
STARTCHAR U+0079
ENCODING 121
SWIDTH 571 0
DWIDTH 4 0
BBX 3 5 0 -1
BITMAP
A0
A0
A0
40
80
ENDCHAR
STARTCHAR U+007A
ENCODING 122
SWIDTH 571 0
DWIDTH 4 0
BBX 3 4 0 0
BITMAP
E0
40
80
E0
ENDCHAR
STARTCHAR U+007B
ENCODING 123
SWIDTH 571 0
DWIDTH 4 0
BBX 3 5 0 0
BITMAP
60
40
80
40
60
ENDCHAR
STARTCHAR U+007C
ENCODING 124
SWIDTH 285 0
DWIDTH 2 0
BBX 1 5 0 0
BITMAP
80
80
80
80
80
ENDCHAR
STARTCHAR U+007D
ENCODING 125
SWIDTH 571 0
DWIDTH 4 0
BBX 3 5 0 0
BITMAP
C0
40
20
40
C0
ENDCHAR
STARTCHAR U+007E
ENCODING 126
SWIDTH 714 0
DWIDTH 5 0
BBX 4 2 0 1
BITMAP
50
A0
ENDCHAR
STARTCHAR U+007F
ENCODING 127
SWIDTH 571 0
DWIDTH 4 0
BBX 0 0 0 0
BITMAP
ENDCHAR
STARTCHAR U+00A0
ENCODING 160
SWIDTH 285 0
DWIDTH 2 0
BBX 0 0 0 0
BITMAP
ENDCHAR
STARTCHAR U+00A1
ENCODING 161
SWIDTH 285 0
DWIDTH 2 0
BBX 1 5 0 0
BITMAP
80
00
80
80
80
ENDCHAR
STARTCHAR U+00A2
ENCODING 162
SWIDTH 571 0
DWIDTH 4 0
BBX 3 5 0 0
BITMAP
40
60
80
60
40
ENDCHAR
STARTCHAR U+00A3
ENCODING 163
SWIDTH 714 0
DWIDTH 5 0
BBX 4 5 0 0
BITMAP
20
50
E0
40
F0
ENDCHAR
STARTCHAR U+00A4
ENCODING 164
SWIDTH 714 0
DWIDTH 5 0
BBX 4 4 0 0
BITMAP
90
60
60
90
ENDCHAR
STARTCHAR U+00A5
ENCODING 165
SWIDTH 571 0
DWIDTH 4 0
BBX 3 5 0 0
BITMAP
A0
A0
40
E0
40
ENDCHAR
STARTCHAR U+00A6
ENCODING 166
SWIDTH 285 0
DWIDTH 2 0
BBX 1 5 0 0
BITMAP
80
80
00
80
80
ENDCHAR
STARTCHAR U+00A7
ENCODING 167
SWIDTH 571 0
DWIDTH 4 0
BBX 3 5 0 0
BITMAP
60
C0
A0
60
C0
ENDCHAR
STARTCHAR U+00A8
ENCODING 168
SWIDTH 571 0
DWIDTH 4 0
BBX 3 1 0 4
BITMAP
A0
ENDCHAR
STARTCHAR U+00A9
ENCODING 169
SWIDTH 571 0
DWIDTH 4 0
BBX 3 4 0 1
BITMAP
60
80
80
60
ENDCHAR
STARTCHAR U+00AA
ENCODING 170
SWIDTH 571 0
DWIDTH 4 0
BBX 3 3 0 2
BITMAP
60
A0
60
ENDCHAR
STARTCHAR U+00AB
ENCODING 171
SWIDTH 714 0
DWIDTH 5 0
BBX 4 3 0 1
BITMAP
50
A0
50
ENDCHAR
STARTCHAR U+00AC
ENCODING 172
SWIDTH 571 0
DWIDTH 4 0
BBX 3 2 0 1
BITMAP
E0
20
ENDCHAR
STARTCHAR U+00AD
ENCODING 173
SWIDTH 285 0
DWIDTH 2 0
BBX 0 0 0 0
BITMAP
ENDCHAR
STARTCHAR U+00AE
ENCODING 174
SWIDTH 571 0
DWIDTH 4 0
BBX 3 4 0 1
BITMAP
C0
A0
C0
A0
ENDCHAR
STARTCHAR U+00AF
ENCODING 175
SWIDTH 571 0
DWIDTH 4 0
BBX 3 1 0 4
BITMAP
E0
ENDCHAR
STARTCHAR U+00B0
ENCODING 176
SWIDTH 571 0
DWIDTH 4 0
BBX 3 3 0 2
BITMAP
40
A0
40
ENDCHAR
STARTCHAR U+00B1
ENCODING 177
SWIDTH 571 0
DWIDTH 4 0
BBX 3 5 0 0
BITMAP
40
E0
40
00
E0
ENDCHAR
STARTCHAR U+00B2
ENCODING 178
SWIDTH 571 0
DWIDTH 4 0
BBX 3 4 0 1
BITMAP
C0
20
40
E0
ENDCHAR
STARTCHAR U+00B3
ENCODING 179
SWIDTH 571 0
DWIDTH 4 0
BBX 3 4 0 1
BITMAP
E0
40
20
C0
ENDCHAR
STARTCHAR U+00B4
ENCODING 180
SWIDTH 428 0
DWIDTH 3 0
BBX 2 2 0 3
BITMAP
40
80
ENDCHAR
STARTCHAR U+00B5
ENCODING 181
SWIDTH 571 0
DWIDTH 4 0
BBX 3 4 0 -1
BITMAP
A0
A0
E0
80
ENDCHAR
STARTCHAR U+00B6
ENCODING 182
SWIDTH 714 0
DWIDTH 5 0
BBX 4 5 0 0
BITMAP
70
D0
50
50
50
ENDCHAR
STARTCHAR U+00B7
ENCODING 183
SWIDTH 285 0
DWIDTH 2 0
BBX 1 1 0 2
BITMAP
80
ENDCHAR
STARTCHAR U+00B8
ENCODING 184
SWIDTH 428 0
DWIDTH 3 0
BBX 2 2 0 -1
BITMAP
40
80
ENDCHAR
STARTCHAR U+00B9
ENCODING 185
SWIDTH 428 0
DWIDTH 3 0
BBX 2 4 0 1
BITMAP
40
C0
40
40
ENDCHAR
STARTCHAR U+00BA
ENCODING 186
SWIDTH 571 0
DWIDTH 4 0
BBX 3 3 0 2
BITMAP
40
A0
40
ENDCHAR
STARTCHAR U+00BB
ENCODING 187
SWIDTH 714 0
DWIDTH 5 0
BBX 4 3 0 1
BITMAP
A0
50
A0
ENDCHAR
STARTCHAR U+00BC
ENCODING 188
SWIDTH 1000 0
DWIDTH 7 0
BBX 6 5 0 0
BITMAP
40
C4
4C
5C
04
ENDCHAR
STARTCHAR U+00BD
ENCODING 189
SWIDTH 1000 0
DWIDTH 7 0
BBX 6 5 0 0
BITMAP
40
D8
44
48
1C
ENDCHAR
STARTCHAR U+00BE
ENCODING 190
SWIDTH 1000 0
DWIDTH 7 0
BBX 6 5 0 0
BITMAP
E0
44
2C
DC
04
ENDCHAR
STARTCHAR U+00BF
ENCODING 191
SWIDTH 571 0
DWIDTH 4 0
BBX 3 5 0 0
BITMAP
40
00
40
80
60
ENDCHAR
STARTCHAR U+00C0
ENCODING 192
SWIDTH 714 0
DWIDTH 5 0
BBX 4 6 0 0
BITMAP
40
60
90
F0
90
90
ENDCHAR
STARTCHAR U+00C1
ENCODING 193
SWIDTH 714 0
DWIDTH 5 0
BBX 4 6 0 0
BITMAP
20
60
90
F0
90
90
ENDCHAR
STARTCHAR U+00C2
ENCODING 194
SWIDTH 714 0
DWIDTH 5 0
BBX 4 6 0 0
BITMAP
60
60
90
F0
90
90
ENDCHAR
STARTCHAR U+00C3
ENCODING 195
SWIDTH 714 0
DWIDTH 5 0
BBX 4 6 0 0
BITMAP
50
A0
60
90
F0
90
ENDCHAR
STARTCHAR U+00C4
ENCODING 196
SWIDTH 714 0
DWIDTH 5 0
BBX 4 6 0 0
BITMAP
90
60
90
F0
90
90
ENDCHAR
STARTCHAR U+00C5
ENCODING 197
SWIDTH 714 0
DWIDTH 5 0
BBX 4 6 0 0
BITMAP
60
90
60
90
F0
90
ENDCHAR
STARTCHAR U+00C6
ENCODING 198
SWIDTH 857 0
DWIDTH 6 0
BBX 5 5 0 0
BITMAP
78
A0
F8
A0
B8
ENDCHAR
STARTCHAR U+00C7
ENCODING 199
SWIDTH 714 0
DWIDTH 5 0
BBX 4 6 0 -1
BITMAP
60
90
80
90
60
40
ENDCHAR
STARTCHAR U+00C8
ENCODING 200
SWIDTH 714 0
DWIDTH 5 0
BBX 4 6 0 0
BITMAP
40
F0
80
E0
80
F0
ENDCHAR
STARTCHAR U+00C9
ENCODING 201
SWIDTH 714 0
DWIDTH 5 0
BBX 4 6 0 0
BITMAP
20
F0
80
E0
80
F0
ENDCHAR
STARTCHAR U+00CA
ENCODING 202
SWIDTH 714 0
DWIDTH 5 0
BBX 4 6 0 0
BITMAP
60
F0
80
E0
80
F0
ENDCHAR
STARTCHAR U+00CB
ENCODING 203
SWIDTH 714 0
DWIDTH 5 0
BBX 4 6 0 0
BITMAP
90
F0
80
E0
80
F0
ENDCHAR
STARTCHAR U+00CC
ENCODING 204
SWIDTH 285 0
DWIDTH 2 0
BBX 2 6 -1 0
BITMAP
80
40
40
40
40
40
ENDCHAR
STARTCHAR U+00CD
ENCODING 205
SWIDTH 285 0
DWIDTH 2 0
BBX 2 6 0 0
BITMAP
40
80
80
80
80
80
ENDCHAR
STARTCHAR U+00CE
ENCODING 206
SWIDTH 285 0
DWIDTH 2 0
BBX 2 6 0 0
BITMAP
C0
80
80
80
80
80
ENDCHAR
STARTCHAR U+00CF
ENCODING 207
SWIDTH 285 0
DWIDTH 2 0
BBX 3 6 -1 0
BITMAP
A0
40
40
40
40
40
ENDCHAR
STARTCHAR U+00D0
ENCODING 208
SWIDTH 714 0
DWIDTH 5 0
BBX 4 5 0 0
BITMAP
E0
90
D0
90
E0
ENDCHAR
STARTCHAR U+00D1
ENCODING 209
SWIDTH 714 0
DWIDTH 5 0
BBX 4 6 0 0
BITMAP
60
90
D0
B0
90
90
ENDCHAR
STARTCHAR U+00D2
ENCODING 210
SWIDTH 714 0
DWIDTH 5 0
BBX 4 6 0 0
BITMAP
40
60
90
90
90
60
ENDCHAR
STARTCHAR U+00D3
ENCODING 211
SWIDTH 714 0
DWIDTH 5 0
BBX 4 6 0 0
BITMAP
20
60
90
90
90
60
ENDCHAR
STARTCHAR U+00D4
ENCODING 212
SWIDTH 714 0
DWIDTH 5 0
BBX 4 6 0 0
BITMAP
60
60
90
90
90
60
ENDCHAR
STARTCHAR U+00D5
ENCODING 213
SWIDTH 714 0
DWIDTH 5 0
BBX 4 6 0 0
BITMAP
50
A0
60
90
90
60
ENDCHAR
STARTCHAR U+00D6
ENCODING 214
SWIDTH 714 0
DWIDTH 5 0
BBX 4 6 0 0
BITMAP
90
60
90
90
90
60
ENDCHAR
STARTCHAR U+00D7
ENCODING 215
SWIDTH 571 0
DWIDTH 4 0
BBX 3 3 0 1
BITMAP
A0
40
A0
ENDCHAR
STARTCHAR U+00D8
ENCODING 216
SWIDTH 714 0
DWIDTH 5 0
BBX 4 5 0 0
BITMAP
60
B0
D0
90
60
ENDCHAR
STARTCHAR U+00D9
ENCODING 217
SWIDTH 714 0
DWIDTH 5 0
BBX 4 6 0 0
BITMAP
20
90
90
90
90
60
ENDCHAR
STARTCHAR U+00DA
ENCODING 218
SWIDTH 714 0
DWIDTH 5 0
BBX 4 6 0 0
BITMAP
40
90
90
90
90
60
ENDCHAR
STARTCHAR U+00DB
ENCODING 219
SWIDTH 714 0
DWIDTH 5 0
BBX 4 6 0 0
BITMAP
60
00
90
90
90
60
ENDCHAR
STARTCHAR U+00DC
ENCODING 220
SWIDTH 714 0
DWIDTH 5 0
BBX 4 6 0 0
BITMAP
90
00
90
90
90
60
ENDCHAR
STARTCHAR U+00DD
ENCODING 221
SWIDTH 571 0
DWIDTH 4 0
BBX 3 6 0 0
BITMAP
20
40
A0
A0
40
40
ENDCHAR
STARTCHAR U+00DE
ENCODING 222
SWIDTH 714 0
DWIDTH 5 0
BBX 4 5 0 0
BITMAP
80
E0
90
E0
80
ENDCHAR
STARTCHAR U+00DF
ENCODING 223
SWIDTH 571 0
DWIDTH 4 0
BBX 3 6 0 -1
BITMAP
40
A0
C0
A0
C0
80
ENDCHAR
STARTCHAR U+00E0
ENCODING 224
SWIDTH 571 0
DWIDTH 4 0
BBX 3 6 0 0
BITMAP
80
40
60
A0
A0
60
ENDCHAR
STARTCHAR U+00E1
ENCODING 225
SWIDTH 571 0
DWIDTH 4 0
BBX 3 6 0 0
BITMAP
20
40
60
A0
A0
60
ENDCHAR
STARTCHAR U+00E2
ENCODING 226
SWIDTH 571 0
DWIDTH 4 0
BBX 3 6 0 0
BITMAP
60
00
60
A0
A0
60
ENDCHAR
STARTCHAR U+00E3
ENCODING 227
SWIDTH 571 0
DWIDTH 4 0
BBX 3 6 0 0
BITMAP
60
C0
60
A0
A0
60
ENDCHAR
STARTCHAR U+00E4
ENCODING 228
SWIDTH 571 0
DWIDTH 4 0
BBX 3 6 0 0
BITMAP
A0
00
60
A0
A0
60
ENDCHAR
STARTCHAR U+00E5
ENCODING 229
SWIDTH 571 0
DWIDTH 4 0
BBX 3 6 0 0
BITMAP
40
A0
60
A0
A0
60
ENDCHAR
STARTCHAR U+00E6
ENCODING 230
SWIDTH 857 0
DWIDTH 6 0
BBX 5 4 0 0
BITMAP
70
B8
A0
78
ENDCHAR
STARTCHAR U+00E7
ENCODING 231
SWIDTH 571 0
DWIDTH 4 0
BBX 3 5 0 -1
BITMAP
60
80
80
60
40
ENDCHAR
STARTCHAR U+00E8
ENCODING 232
SWIDTH 571 0
DWIDTH 4 0
BBX 3 5 0 0
BITMAP
80
40
E0
80
60
ENDCHAR
STARTCHAR U+00E9
ENCODING 233
SWIDTH 571 0
DWIDTH 4 0
BBX 3 5 0 0
BITMAP
20
40
E0
80
60
ENDCHAR
STARTCHAR U+00EA
ENCODING 234
SWIDTH 571 0
DWIDTH 4 0
BBX 3 6 0 0
BITMAP
60
00
40
E0
80
60
ENDCHAR
STARTCHAR U+00EB
ENCODING 235
SWIDTH 571 0
DWIDTH 4 0
BBX 3 6 0 0
BITMAP
A0
00
40
E0
80
60
ENDCHAR
STARTCHAR U+00EC
ENCODING 236
SWIDTH 285 0
DWIDTH 2 0
BBX 2 6 -1 0
BITMAP
80
40
00
40
40
40
ENDCHAR
STARTCHAR U+00ED
ENCODING 237
SWIDTH 285 0
DWIDTH 2 0
BBX 2 6 0 0
BITMAP
40
80
00
80
80
80
ENDCHAR
STARTCHAR U+00EE
ENCODING 238
SWIDTH 285 0
DWIDTH 2 0
BBX 2 6 0 0
BITMAP
C0
00
80
80
80
80
ENDCHAR
STARTCHAR U+00EF
ENCODING 239
SWIDTH 285 0
DWIDTH 2 0
BBX 3 6 -1 0
BITMAP
A0
00
40
40
40
40
ENDCHAR
STARTCHAR U+00F0
ENCODING 240
SWIDTH 571 0
DWIDTH 4 0
BBX 3 5 0 0
BITMAP
40
20
60
A0
40
ENDCHAR
STARTCHAR U+00F1
ENCODING 241
SWIDTH 571 0
DWIDTH 4 0
BBX 3 6 0 0
BITMAP
C0
00
C0
A0
A0
A0
ENDCHAR
STARTCHAR U+00F2
ENCODING 242
SWIDTH 571 0
DWIDTH 4 0
BBX 3 5 0 0
BITMAP
80
40
A0
A0
40
ENDCHAR
STARTCHAR U+00F3
ENCODING 243
SWIDTH 571 0
DWIDTH 4 0
BBX 3 5 0 0
BITMAP
20
40
A0
A0
40
ENDCHAR
STARTCHAR U+00F4
ENCODING 244
SWIDTH 571 0
DWIDTH 4 0
BBX 3 6 0 0
BITMAP
60
00
40
A0
A0
40
ENDCHAR
STARTCHAR U+00F5
ENCODING 245
SWIDTH 571 0
DWIDTH 4 0
BBX 3 6 0 0
BITMAP
60
C0
40
A0
A0
40
ENDCHAR
STARTCHAR U+00F6
ENCODING 246
SWIDTH 571 0
DWIDTH 4 0
BBX 3 6 0 0
BITMAP
A0
00
40
A0
A0
40
ENDCHAR
STARTCHAR U+00F7
ENCODING 247
SWIDTH 571 0
DWIDTH 4 0
BBX 3 5 0 0
BITMAP
40
00
E0
00
40
ENDCHAR
STARTCHAR U+00F8
ENCODING 248
SWIDTH 571 0
DWIDTH 4 0
BBX 3 4 0 0
BITMAP
40
E0
A0
40
ENDCHAR
STARTCHAR U+00F9
ENCODING 249
SWIDTH 571 0
DWIDTH 4 0
BBX 3 6 0 0
BITMAP
80
40
A0
A0
A0
60
ENDCHAR
STARTCHAR U+00FA
ENCODING 250
SWIDTH 571 0
DWIDTH 4 0
BBX 3 6 0 0
BITMAP
20
40
A0
A0
A0
60
ENDCHAR
STARTCHAR U+00FB
ENCODING 251
SWIDTH 571 0
DWIDTH 4 0
BBX 3 6 0 0
BITMAP
60
00
A0
A0
A0
60
ENDCHAR
STARTCHAR U+00FC
ENCODING 252
SWIDTH 571 0
DWIDTH 4 0
BBX 3 6 0 0
BITMAP
A0
00
A0
A0
A0
60
ENDCHAR
STARTCHAR U+00FD
ENCODING 253
SWIDTH 571 0
DWIDTH 4 0
BBX 3 7 0 -1
BITMAP
20
40
A0
A0
A0
40
80
ENDCHAR
STARTCHAR U+00FE
ENCODING 254
SWIDTH 571 0
DWIDTH 4 0
BBX 3 6 0 -1
BITMAP
80
C0
A0
A0
C0
80
ENDCHAR
STARTCHAR U+00FF
ENCODING 255
SWIDTH 571 0
DWIDTH 4 0
BBX 3 7 0 -1
BITMAP
A0
00
A0
A0
A0
40
80
ENDCHAR
ENDFONT
